<svg aria-hidden="true" style="position: absolute; width: 0; height: 0; overflow: hidden;" version="1.1" xmlns="http://www.w3.org/2000/svg" xmlns:xlink="http://www.w3.org/1999/xlink">
<defs>
<symbol id="instagram-icon" viewBox="0 0 32 32">
<path d="M31.969 9.408c-0.075-1.7-0.35-2.869-0.744-3.882-0.406-1.075-1.032-2.038-1.851-2.838-0.8-0.813-1.769-1.444-2.832-1.844-1.019-0.394-2.182-0.669-3.882-0.744-1.713-0.081-2.257-0.1-6.601-0.1s-4.888 0.019-6.595 0.094c-1.7 0.075-2.869 0.35-3.882 0.744-1.075 0.406-2.038 1.031-2.838 1.85-0.813 0.8-1.444 1.769-1.844 2.832-0.394 1.019-0.669 2.182-0.744 3.882-0.081 1.713-0.1 2.257-0.1 6.601s0.019 4.888 0.094 6.595c0.075 1.7 0.35 2.869 0.744 3.882 0.406 1.075 1.038 2.038 1.85 2.838 0.8 0.813 1.769 1.444 2.832 1.844 1.019 0.394 2.182 0.669 3.882 0.744 1.706 0.075 2.25 0.094 6.595 0.094s4.888-0.019 6.595-0.094c1.7-0.075 2.869-0.35 3.882-0.744 2.151-0.832 3.851-2.532 4.682-4.682 0.394-1.019 0.669-2.182 0.744-3.882 0.075-1.707 0.094-2.251 0.094-6.595s-0.006-4.888-0.081-6.595zM29.087 22.473c-0.069 1.563-0.331 2.407-0.55 2.969-0.538 1.394-1.644 2.5-3.038 3.038-0.563 0.219-1.413 0.481-2.969 0.55-1.688 0.075-2.194 0.094-6.464 0.094s-4.782-0.019-6.464-0.094c-1.563-0.069-2.407-0.331-2.969-0.55-0.694-0.256-1.325-0.663-1.838-1.194-0.531-0.519-0.938-1.144-1.194-1.838-0.219-0.563-0.481-1.413-0.55-2.969-0.075-1.688-0.094-2.194-0.094-6.464s0.019-4.782 0.094-6.464c0.069-1.563 0.331-2.407 0.55-2.969 0.256-0.694 0.663-1.325 1.2-1.838 0.519-0.531 1.144-0.938 1.838-1.194 0.563-0.219 1.413-0.481 2.969-0.55 1.688-0.075 2.194-0.094 6.464-0.094 4.276 0 4.782 0.019 6.464 0.094 1.563 0.069 2.407 0.331 2.969 0.55 0.694 0.256 1.325 0.662 1.838 1.194 0.531 0.519 0.938 1.144 1.194 1.838 0.219 0.563 0.481 1.413 0.55 2.969 0.075 1.688 0.094 2.194 0.094 6.464s-0.019 4.77-0.094 6.458z"></path>
<path d="M16.059 7.783c-4.538 0-8.22 3.682-8.22 8.22s3.682 8.22 8.22 8.22c4.539 0 8.22-3.682 8.22-8.22s-3.682-8.22-8.22-8.22zM16.059 21.335c-2.944 0-5.332-2.388-5.332-5.332s2.388-5.332 5.332-5.332c2.944 0 5.332 2.388 5.332 5.332s-2.388 5.332-5.332 5.332z"></path>
<path d="M26.524 7.458c0 1.060-0.859 1.919-1.919 1.919s-1.919-0.859-1.919-1.919c0-1.060 0.859-1.919 1.919-1.919s1.919 0.859 1.919 1.919z"></path>
</symbol>
<symbol id="facebook-icon" viewBox="0 0 32 32">
<path d="M18.18 2.515c0.119 0 0.187 0.005 0.187 0.005h2.611l-0.014 3h-2.594c-1.427 0-1.395 1.219-1.395 1.219v4.756h5.051l-0.705 2.996h-4.363v14.993h-2.997l-0.002-14.993h-3.982l-0.008-2.996h3.991v-4.662c0.001-4.065 3.377-4.318 4.217-4.318zM20.979 2.52v0zM18.18 0.515c-0.719 0-2.124 0.119-3.455 0.921-1.26 0.758-2.761 2.311-2.761 5.396v2.662h-1.991c-0.531 0-1.041 0.212-1.417 0.588-0.375 0.377-0.585 0.886-0.583 1.419l0.008 2.996c0.004 1.101 0.899 1.993 2 1.993h1.982l0.002 12.993c0 1.105 0.896 2 2 2h2.997c1.105 0 2-0.895 2-2v-12.993h2.363c0.887 0 1.669-0.585 1.919-1.437l0.705-2.996c0.177-0.604 0.059-1.258-0.319-1.761-0.377-0.505-0.971-0.802-1.601-0.802h-3.051v-1.973l1.988-0.001c1.101 0 1.995-0.889 2-1.991l0.014-2.898c0.002-0.037 0.003-0.073 0.003-0.111 0-1.105-0.893-2-1.998-2h-2.561c-0.058-0.003-0.14-0.005-0.244-0.005z"></path>
</symbol>
<symbol id="twitter-icon" viewBox="0 0 32 32">
<path d="M21.387 4.959c1.652 0 3.144 0.676 4.195 1.762 1.308-0.253 2.54-0.714 3.648-1.352-0.428 1.301-1.34 2.393-2.525 3.083 1.16-0.136 2.27-0.434 3.301-0.88-0.773 1.117-1.745 2.1-2.868 2.886 0.011 0.239 0.017 0.479 0.017 0.719 0 7.366-5.782 15.863-16.354 15.863-3.245 0-6.268-0.926-8.809-2.507 0.449 0.052 0.906 0.079 1.37 0.079 2.692 0 5.172-0.89 7.139-2.387-2.517-0.043-4.641-1.657-5.369-3.87 0.351 0.066 0.711 0.101 1.082 0.101 0.522 0 1.032-0.067 1.512-0.195-2.629-0.511-4.611-2.764-4.611-5.467v-0.072c0.776 0.418 1.661 0.669 2.605 0.698-1.543-1.001-2.558-2.705-2.558-4.64 0-1.022 0.284-1.981 0.779-2.801 2.834 3.371 7.069 5.591 11.847 5.824-0.098-0.407-0.149-0.837-0.149-1.27 0-3.079 2.574-5.575 5.749-5.575zM30.006 7.572v0zM21.387 2.959c-3.927 0-7.18 2.869-7.681 6.576-3.213-0.646-6.135-2.346-8.235-4.842-0.381-0.454-0.942-0.713-1.531-0.713-0.052 0-0.104 0.002-0.157 0.006-0.643 0.052-1.223 0.41-1.556 0.962-0.698 1.157-1.066 2.482-1.066 3.833 0 0.902 0.162 1.779 0.469 2.601-0.327 0.364-0.515 0.839-0.515 1.341v0.072c0 1.959 0.774 3.777 2.061 5.139-0.074 0.343-0.058 0.702 0.055 1.046 0.444 1.349 1.251 2.512 2.298 3.398-0.703 0.157-1.428 0.235-2.169 0.235-0.392 0-0.773-0.021-1.133-0.066-0.080-0.010-0.159-0.014-0.238-0.014-0.84 0-1.603 0.529-1.885 1.337-0.31 0.885 0.034 1.866 0.83 2.361 2.954 1.838 6.366 2.808 9.866 2.808 11.376 0 18.219-8.905 18.352-17.605 0.931-0.771 1.754-1.662 2.451-2.661 0.254-0.334 0.405-0.751 0.405-1.203 0-0.681-0.34-1.282-0.859-1.644 0.224-0.769-0.032-1.603-0.657-2.111-0.365-0.297-0.813-0.448-1.262-0.448-0.344 0-0.689 0.088-0.999 0.268-0.661 0.381-1.368 0.683-2.113 0.9-1.347-1.014-3.017-1.578-4.732-1.578z"></path>
</symbol>
</defs>
</svg>
